<svg width="116" height="37" viewBox="0 0 116 37" fill="none" xmlns="http://www.w3.org/2000/svg">
<path d="M16.7716 0.0130613C7.7202 0.364005 0.365007 7.70458 0.0140635 16.756C-0.380748 26.6994 7.5886 34.9027 17.4443 34.9173H17.4589C18.4094 34.9173 19.3306 34.8442 20.2372 34.698C20.6466 34.6249 20.9537 34.2739 20.9683 33.8499L20.983 32.8702C20.983 32.6216 21.2315 32.4461 21.4655 32.5338L24.1561 33.5574C25.0188 33.1919 25.8523 32.7678 26.6419 32.2706C26.7735 32.1975 26.9051 32.1098 27.0221 32.0221L25.2235 30.4867L24.0391 29.4777L22.2844 27.9862C22.0943 28.0739 21.9042 28.1471 21.7141 28.2348C20.3834 28.7612 18.9358 29.0537 17.4296 29.0537C17.3127 29.0537 17.1811 29.0537 17.0641 29.039C16.991 29.039 16.9032 29.039 16.8301 29.0244C15.8943 28.9805 14.9877 28.8197 14.1249 28.5565C12.6627 28.1178 11.3174 27.4013 10.1622 26.4654C7.44237 24.272 5.7169 20.8796 5.81926 17.1069C5.98011 11.097 10.791 6.13995 16.8009 5.81826C23.4834 5.46731 29.04 10.8046 29.04 17.414C29.04 20.7772 27.607 23.8187 25.3113 25.939C25.1797 26.056 25.1943 26.2607 25.3405 26.3485L28.2358 28.2494L29.815 29.2876C29.9759 29.39 30.1806 29.3607 30.2976 29.2291C33.149 26.1145 34.9037 21.9763 34.9037 17.4286C34.9183 7.60222 26.715 -0.367128 16.7716 0.0130613Z" fill="#086B72"/>
<path d="M31.0577 35.4583C31.3648 35.7216 31.0724 36.2187 30.6922 36.0725L24.1705 33.5866L21.4799 32.5631C21.2459 32.4753 20.9973 32.6362 20.9973 32.8994L20.9681 34.3032C20.9681 34.4786 20.8365 34.6249 20.6756 34.6541C19.6374 34.8442 18.5554 34.9466 17.4587 34.9466H17.444L7.04733 26.0852C6.74026 25.822 7.03271 25.3248 7.4129 25.4711L10.1473 26.5093C10.1766 26.5239 10.2058 26.5385 10.2351 26.5678C11.3903 27.489 12.7063 28.1909 14.1539 28.6149C15.0167 28.8781 15.9233 29.0244 16.8591 29.0829L17.0931 29.1706V29.0829L17.1808 24.4329C17.1808 24.1258 17.5464 23.9649 17.7804 24.1697L22.3134 28.03L27.0511 32.0659L31.0577 35.4583Z" fill="#086B72"/>
<path d="M58.2474 36.079H52.5665C52.1696 36.079 51.8223 35.8805 51.6238 35.5332L45.3228 24.5188L43.76 21.4427H43.6855L43.8344 25.7096V35.0123C43.8344 35.6077 43.3382 36.1038 42.7429 36.1038H39.0466C38.4512 36.1038 37.9551 35.6077 37.9551 35.0123V14.1246C37.9551 13.5293 38.4512 13.0331 39.0466 13.0331H44.7026C45.0996 13.0331 45.4469 13.2316 45.6453 13.5789L51.9463 24.5933L53.5588 27.5701H53.5836L53.4348 23.4025V14.0998C53.4348 13.5044 53.9309 13.0083 54.5263 13.0083H58.2474C58.8427 13.0083 59.3389 13.5044 59.3389 14.0998V34.9875C59.3389 35.6077 58.8427 36.079 58.2474 36.079Z" fill="#E3655B"/>
<path d="M60.2562 13.0083H76.7777C77.2739 13.0083 77.6956 13.4052 77.6956 13.9262V17.1759C77.6956 17.6721 77.2987 18.0938 76.7777 18.0938H66.9541C66.458 18.0938 66.0362 18.4907 66.0362 19.0116V21.3435C66.0362 21.8397 66.4331 22.2614 66.9541 22.2614H77.2243C77.7204 22.2614 78.1421 22.6583 78.1421 23.1793V26.1561C78.1421 26.6523 77.7452 27.074 77.2243 27.074H66.9541C66.458 27.074 66.0362 27.4709 66.0362 27.9918V30.1501C66.0362 30.6462 66.4331 31.0679 66.9541 31.0679H77.2243C77.7204 31.0679 78.1421 31.4649 78.1421 31.9858V35.2355C78.1421 35.7317 77.7452 36.1534 77.2243 36.1534H60.2313C59.7352 36.1534 59.3135 35.7565 59.3135 35.2355V14.0006C59.3383 13.43 59.7352 13.0083 60.2562 13.0083Z" fill="#086B72"/>
<path d="M86.7752 25.2134L88.2884 22.6087C88.4124 22.3854 88.6605 22.2614 88.9086 22.2614H92.7785C93.3491 22.2614 93.6964 22.8816 93.3739 23.3529L89.9505 28.7361C89.8016 28.9841 89.8016 29.2818 89.9505 29.5051L93.4731 34.9875C93.7708 35.4588 93.4483 36.1038 92.8777 36.1038H88.9334C88.6853 36.1038 88.4372 35.9798 88.3132 35.7565L86.6263 32.9037C86.3534 32.4323 85.6588 32.4323 85.386 32.9037L83.7239 35.7317C83.5998 35.9549 83.3518 36.079 83.1037 36.079H79.4322C78.8617 36.079 78.5144 35.4588 78.812 34.9875L82.2354 29.4555C82.3843 29.2322 82.3843 28.9345 82.2354 28.7113L78.9857 23.3281C78.688 22.8568 79.0353 22.2366 79.6059 22.2366H83.4014C83.6495 22.2366 83.8975 22.3606 84.0216 22.5839L85.5348 25.1886C85.8077 25.6848 86.4775 25.6848 86.7752 25.2134Z" fill="#086B72"/>
<path d="M115.031 18.8133H109.077C108.68 18.8133 108.357 19.1358 108.357 19.5327V35.3349C108.357 35.7318 108.035 36.0543 107.638 36.0543H102.379C101.982 36.0543 101.66 35.7318 101.66 35.3349V19.5327C101.66 19.1358 101.337 18.8133 100.94 18.8133H94.9616C94.5647 18.8133 94.2422 18.4908 94.2422 18.0939V13.7526C94.2422 13.3557 94.5647 13.0332 94.9616 13.0332H115.08C115.477 13.0332 115.8 13.3557 115.8 13.7526V18.0939C115.775 18.4908 115.428 18.8133 115.031 18.8133Z" fill="#086B72"/>
</svg>
